<svg viewBox="0 0 100 100" xmlns="http://www.w3.org/2000/svg">
  <defs>
    <radialGradient id="core" cx="35%" cy="30%" r="70%">
      <stop offset="0%" stop-color="#FFE8A8"></stop>
      <stop offset="45%" stop-color="#E9B85B"></stop>
      <stop offset="100%" stop-color="#B97922"></stop>
    </radialGradient>

    <linearGradient id="petal" x1="0" y1="0" x2="1" y2="1">
      <stop offset="0%" stop-color="#FFF0B8"></stop>
      <stop offset="45%" stop-color="#E8B354"></stop>
      <stop offset="100%" stop-color="#A86D1D"></stop>
    </linearGradient>
  </defs>

  <rect width="100" height="100" rx="22" fill="#fffaf2"></rect>

  <g fill="url(#petal)">
    <path d="M50 9 C60 20, 61 26, 50 31 C39 26, 40 20, 50 9Z"></path>
    <path d="M71 15 C73 30, 70 36, 59 37 C57 26, 61 20, 71 15Z"></path>
    <path d="M88 36 C75 45, 69 46, 64 37 C72 29, 79 30, 88 36Z"></path>
    <path d="M88 64 C73 63, 67 59, 68 48 C79 47, 84 53, 88 64Z"></path>
    <path d="M50 91 C40 80, 39 74, 50 69 C61 74, 60 80, 50 91Z"></path>
    <path d="M29 85 C27 70, 30 64, 41 63 C43 74, 39 80, 29 85Z"></path>
    <path d="M12 64 C25 55, 31 54, 36 63 C28 71, 21 70, 12 64Z"></path>
    <path d="M12 36 C27 37, 33 41, 32 52 C21 53, 16 47, 12 36Z"></path>
    <path d="M29 15 C42 22, 45 28, 39 37 C29 32, 25 25, 29 15Z"></path>
  </g>

  <circle cx="50" cy="50" r="13" fill="url(#core)"></circle>
  <circle cx="45" cy="44" r="4" fill="rgba(255,255,255,0.35)"></circle>
</svg>